<?xml version="1.0" standalone="no"?>
<!DOCTYPE svg PUBLIC "-//W3C//DTD SVG 20010904//EN"
 "http://www.w3.org/TR/2001/REC-SVG-20010904/DTD/svg10.dtd">
<svg version="1.0" xmlns="http://www.w3.org/2000/svg"
 width="460.000000pt" height="460.000000pt" viewBox="0 0 460.000000 460.000000"
 preserveAspectRatio="xMidYMid meet">
<metadata>
Created by potrace 1.14, written by Peter Selinger 2001-2017
</metadata>
<g transform="translate(0.000000,460.000000) scale(0.100000,-0.100000)"
fill="#000000" stroke="none">
<path d="M1670 4026 c0 -2 11 -23 25 -48 13 -24 39 -89 57 -144 30 -93 32
-108 33 -244 0 -136 -2 -151 -32 -245 -68 -212 -51 -273 84 -304 l38 -9 -31
-7 c-18 -4 -48 -21 -69 -37 -34 -29 -35 -31 -19 -49 18 -20 59 -25 69 -9 4 6
10 8 14 5 5 -2 17 5 27 16 10 11 42 31 72 45 29 13 55 31 59 39 11 29 -24 52
-90 58 -77 7 -133 30 -142 57 -9 28 3 94 27 155 48 119 59 183 52 284 -9 125
-34 221 -82 318 -51 103 -64 123 -79 123 -7 0 -13 -2 -13 -4z"/>
<path d="M3770 3779 c-30 -5 -72 -17 -93 -28 -39 -20 -128 -98 -141 -123 -4
-7 -17 -29 -29 -49 -12 -20 -42 -69 -66 -110 -24 -41 -59 -95 -77 -122 -19
-26 -34 -50 -34 -54 0 -36 -281 -326 -351 -363 -58 -29 -112 -27 -139 7 -12
15 -24 40 -27 56 -7 36 -40 55 -60 34 -13 -13 -14 -25 -4 -79 14 -82 22 -248
12 -248 -19 0 -61 134 -61 193 0 37 -15 57 -41 57 -29 0 -31 -16 -13 -102 18
-87 48 -164 93 -235 41 -67 83 -52 80 29 -1 24 2 52 8 62 6 12 7 33 2 55 -5
20 -9 53 -9 73 l0 37 37 -15 c65 -28 142 3 248 97 73 65 207 204 234 242 24
34 141 218 141 222 0 2 20 33 45 69 25 37 45 69 45 72 0 3 17 26 37 51 50 61
110 100 180 117 81 19 115 34 111 48 -5 15 -55 17 -128 7z"/>
<path d="M1 3192 c-1 -18 5 -45 13 -60 38 -72 191 -179 377 -265 104 -48 171
-71 334 -115 175 -48 195 -52 291 -68 90 -14 94 -14 189 11 121 31 135 31 170
-1 27 -25 27 -28 21 -94 -5 -54 -3 -70 9 -80 21 -17 62 1 74 33 5 13 15 30 23
38 27 29 79 122 76 138 -3 16 -68 30 -68 14 0 -4 -12 -21 -26 -36 l-26 -29
-30 36 c-51 63 -114 80 -178 51 -14 -6 -51 -18 -84 -25 -90 -21 -204 -3 -496
79 -147 41 -341 132 -500 233 -53 34 -117 96 -152 148 l-17 25 0 -33z"/>
<path d="M2160 2950 c-83 -23 -180 -69 -265 -125 -37 -25 -70 -45 -74 -45 -5
0 -47 -40 -95 -90 -86 -89 -139 -178 -168 -280 -40 -142 -22 -392 34 -456 10
-11 18 -25 18 -30 0 -17 52 -67 112 -107 72 -49 174 -81 258 -81 56 0 76 5
147 41 45 22 104 56 130 74 26 18 71 48 98 66 63 42 205 172 205 189 0 6 7 17
16 24 17 15 38 60 61 130 13 41 29 248 25 345 -1 22 -9 63 -19 90 -20 54 -88
165 -101 165 -5 0 -18 9 -31 21 -12 11 -49 36 -82 55 -55 30 -69 34 -132 33
-40 -1 -101 -9 -137 -19z m191 -76 c42 -21 33 -25 -24 -10 -26 7 -44 15 -41
19 11 11 33 8 65 -9z m12 -115 c50 -14 113 -71 141 -128 18 -38 22 -62 21
-136 -1 -49 -4 -105 -8 -124 -15 -79 -107 -236 -152 -260 -11 -6 -38 -24 -60
-41 -22 -16 -49 -31 -60 -34 -12 -3 -46 -30 -78 -60 -38 -37 -71 -59 -99 -67
-52 -14 -146 -7 -184 14 -16 8 -40 20 -54 26 -38 18 -63 42 -90 86 -23 36 -25
50 -25 145 1 91 4 112 26 155 23 47 57 104 69 115 3 3 22 26 42 51 97 121 260
252 326 262 55 8 148 7 185 -4z"/>
<path d="M2203 2428 c-6 -7 -13 -21 -16 -31 -7 -17 -9 -17 -47 4 -38 22 -40
22 -60 4 -11 -10 -20 -31 -20 -46 0 -15 -7 -35 -16 -44 -15 -15 -18 -15 -38 3
-32 29 -70 35 -89 14 -9 -9 -16 -21 -16 -27 -1 -5 -9 -10 -19 -10 -17 -1 -72
-43 -72 -56 0 -4 16 -26 35 -49 19 -23 35 -47 35 -54 0 -7 19 -39 42 -72 25
-35 43 -71 44 -89 1 -39 43 -67 68 -46 23 19 20 33 -14 76 -16 20 -32 46 -36
58 -4 12 -17 35 -30 50 -30 36 -30 41 1 55 13 6 27 23 31 37 5 20 12 25 36 25
23 0 40 10 67 40 36 40 74 52 84 28 2 -7 2 -32 0 -56 -7 -77 62 -192 83 -138
3 8 -2 29 -12 48 -24 46 -28 192 -6 230 13 22 13 29 3 42 -16 19 -25 20 -38 4z
m-325 -193 c-3 -3 -9 2 -12 12 -6 14 -5 15 5 6 7 -7 10 -15 7 -18z"/>
<path d="M2762 2332 c-34 -34 -83 -148 -76 -177 10 -39 47 -43 81 -8 15 15 41
38 57 51 29 22 29 22 50 3 33 -31 65 -39 198 -51 265 -24 399 -71 528 -182
124 -108 332 -187 530 -202 41 -3 135 -15 208 -27 100 -17 136 -19 144 -11 7
7 9 14 6 18 -4 3 -57 17 -118 30 -61 13 -119 28 -128 33 -9 5 -48 12 -87 16
-104 10 -113 12 -205 36 -108 27 -211 76 -277 131 -106 87 -162 128 -175 128
-8 0 -22 6 -33 13 -51 35 -215 69 -410 86 -121 11 -128 14 -142 51 -9 24 -17
30 -40 30 -16 0 -35 -6 -41 -12 -10 -10 -12 -8 -10 11 2 15 -5 28 -19 38 -19
13 -23 13 -41 -5z m38 -72 c-8 -5 -17 -7 -19 -4 -3 3 1 9 9 14 8 5 17 7 19 4
3 -3 -1 -9 -9 -14z"/>
<path d="M1296 2041 c-4 -6 -4 -22 0 -36 8 -31 5 -31 -43 -3 -52 30 -194 33
-235 5 -15 -10 -29 -17 -31 -15 -3 2 -42 -22 -88 -52 -102 -67 -100 -66 -191
-114 -40 -21 -80 -45 -89 -52 -8 -8 -18 -14 -22 -14 -6 0 -45 -17 -197 -88
-39 -18 -229 -24 -288 -9 -26 7 -32 6 -32 -7 0 -22 90 -46 175 -46 84 0 167
20 255 62 36 17 83 39 105 50 22 10 69 37 105 58 36 22 73 42 83 46 9 3 17 10
17 15 0 5 6 9 13 9 6 0 43 20 82 45 38 25 76 45 85 45 8 0 24 7 34 15 13 10
43 15 85 15 53 0 76 -5 117 -28 63 -34 86 -52 100 -77 17 -30 50 -31 70 0 16
24 16 27 -1 44 -9 11 -25 46 -35 78 -15 49 -22 58 -43 61 -14 2 -28 -1 -31 -7z"/>
<path d="M2359 1834 c-45 -34 -97 -60 -156 -80 -64 -21 -132 -55 -174 -86 -19
-14 -44 -29 -56 -32 -39 -12 -46 -107 -9 -114 19 -4 113 21 148 39 22 11 28
11 28 1 0 -7 -16 -16 -92 -52 -19 -9 -30 -23 -34 -47 -9 -46 4 -56 63 -52 l50
4 -19 -30 c-23 -39 -23 -50 4 -75 24 -22 33 -21 117 17 30 13 88 36 130 50 93
31 107 43 92 72 -16 29 -48 34 -106 16 -27 -8 -62 -15 -77 -15 -15 0 -29 -4
-33 -9 -3 -6 -13 -10 -23 -10 -9 0 -30 -3 -47 -7 -29 -6 -29 -6 -9 9 11 9 33
19 47 22 15 4 30 11 33 16 3 5 14 9 24 9 10 0 31 6 47 14 15 8 58 28 95 46 83
40 104 60 88 89 -6 12 -21 21 -33 21 -25 0 -152 -39 -211 -65 -21 -9 -50 -14
-65 -12 l-26 3 28 12 c15 6 46 20 70 30 23 11 67 27 97 37 56 18 110 58 110
82 0 7 4 13 9 13 15 0 41 30 41 46 0 8 -15 21 -34 29 -19 8 -37 19 -41 25 -11
17 -40 11 -76 -16z"/>
<path d="M2272 1098 c-17 -17 -15 -75 2 -81 13 -5 37 -99 37 -142 -1 -11 4
-54 10 -95 19 -125 19 -131 28 -250 4 -65 4 -123 -1 -133 -13 -25 9 -85 32
-92 10 -3 27 -2 37 4 72 38 182 55 423 66 63 3 234 12 380 20 146 8 312 14
370 14 96 -1 630 19 690 26 14 1 91 3 173 4 l147 1 0 35 0 35 -52 0 c-29 0
-109 -5 -178 -10 -159 -13 -565 -30 -830 -35 -113 -2 -284 -9 -380 -15 -96 -5
-231 -12 -300 -15 -69 -3 -161 -9 -205 -14 -44 -5 -111 -8 -149 -7 -68 1 -70
2 -77 29 -7 28 -40 279 -44 342 -1 17 -7 56 -14 87 -7 31 -11 63 -10 70 5 25
-12 123 -24 139 -17 23 -51 31 -65 17z"/>
</g>
</svg>
